<?xml version="1.0" encoding="UTF-8"?>
<svg version="1.1" xmlns="http://www.w3.org/2000/svg" width="1024" height="227">
<path d="M0 0 C9.9 0 19.8 0 30 0 C30 0.66 30 1.32 30 2 C31.65 2.33 33.3 2.66 35 3 C35 3.66 35 4.32 35 5 C35.99 5 36.98 5 38 5 C41.35909044 10.41585972 41.50094921 15.13211245 41.625 21.3125 C41.67577075 23.12120794 41.73025065 24.92981692 41.7890625 26.73828125 C41.81540771 27.92997925 41.81540771 27.92997925 41.84228516 29.14575195 C41.80066149 31.01554 41.80066149 31.01554 43 32 C44.47894069 32.10868512 45.9625186 32.15577462 47.4453125 32.17578125 C48.35796875 32.19962891 49.270625 32.22347656 50.2109375 32.24804688 C52.12999338 32.29049248 54.04932663 32.3220226 55.96875 32.34179688 C62.16001997 32.52822867 65.9369724 33.36739413 71 37 C74.02379152 40.48899021 74.95104261 42.24116051 75.25 46.875 C75.1675 47.90625 75.085 48.9375 75 50 C76.32 49.67 77.64 49.34 79 49 C79 48.34 79 47.68 79 47 C79.66 47 80.32 47 81 47 C81 46.34 81 45.68 81 45 C81.66 45 82.32 45 83 45 C83 44.34 83 43.68 83 43 C89.52825079 36.6968613 98.194585 32.73221279 107 31 C108.19109375 30.66226562 109.3821875 30.32453125 110.609375 29.9765625 C127.53055814 25.73212509 146.04860393 29.38914101 160.92578125 37.953125 C169.32044037 43.54245331 176.04040748 50.21106224 181 59 C181.61875 60.093125 182.2375 61.18625 182.875 62.3125 C184 65 184 65 184 69 C187.05049187 68.34059196 187.05049187 68.34059196 188.078125 66.2421875 C188.65820312 65.07042969 188.65820312 65.07042969 189.25 63.875 C196.75568127 50.9629988 208.17546303 41.36193317 222 36 C222.84433594 35.66871094 223.68867187 35.33742187 224.55859375 34.99609375 C233.12430051 31.92312789 241.4798336 30.63368988 250.5625 30.6875 C251.52196533 30.69096436 252.48143066 30.69442871 253.4699707 30.69799805 C261.94102853 30.8258231 269.77415578 31.98251312 278 34 C279.62615234 34.39445312 279.62615234 34.39445312 281.28515625 34.796875 C285.43736279 35.86911806 289.2068559 36.97292987 293 39 C293 39.66 293 40.32 293 41 C294.32 41.33 295.64 41.66 297 42 C297 42.66 297 43.32 297 44 C299.99694284 42.37308817 302.19787753 40.80212247 304.625 38.375 C308.06655631 34.93344369 310.75976721 34.84423496 315.4375 34.8125 C316.85869141 34.79123047 316.85869141 34.79123047 318.30859375 34.76953125 C321.04501644 35.00385482 322.66428123 35.60298617 325 37 C325 37.66 325 38.32 325 39 C329.28541086 40.16708836 329.28541086 40.16708836 333.27734375 38.65625 C334.17582031 38.1096875 335.07429687 37.563125 336 37 C346.1106599 33.35772613 359.00918371 30.01935505 369.2890625 34.40234375 C373.21295157 36.71483745 375.54648583 38.63945749 377 43 C380.58101948 43.33311809 382.38738156 43.46360314 385.3125 41.25 C386.199375 40.5075 387.08625 39.765 388 39 C401.80933701 30.82134938 420.11063404 28.9348723 435.4375 32.5 C444.6544131 35.18303858 453.0275051 39.6850034 461 45 C461 45.66 461 46.32 461 47 C461.66 47 462.32 47 463 47 C463 47.66 463 48.32 463 49 C463.99 49.33 464.98 49.66 466 50 C466 50.66 466 51.32 466 52 C466.66 52 467.32 52 468 52 C468 52.66 468 53.32 468 54 C468.66 54 469.32 54 470 54 C470 54.66 470 55.32 470 56 C470.66 56 471.32 56 472 56 C472.474375 56.639375 472.94875 57.27875 473.4375 57.9375 C474.9091365 60.28372963 474.9091365 60.28372963 478 61 C477.95359375 59.99839844 477.9071875 58.99679688 477.859375 57.96484375 C477.40800491 44.29845587 477.40800491 44.29845587 482 39 C487.14527921 34.81946064 491.56038287 34.36671484 498.125 34.62109375 C503.62727778 35.34625808 506.60569916 37.28203063 510.15600586 41.65649414 C513.14897622 47.1682013 512.55000479 53.54216365 512.51642036 59.64449883 C512.50370393 61.97060267 512.51515785 64.29553474 512.53245544 66.62159729 C512.55907981 70.72355142 512.56475423 74.82521491 512.56335449 78.92724609 C512.56112125 85.4878738 512.57544998 92.0481413 512.61894035 98.60862923 C512.6287136 100.88865082 512.62009578 103.16809586 512.61024475 105.44810486 C512.62180075 112.58343887 512.85098396 118.50972708 516 125 C516.2475 125.763125 516.495 126.52625 516.75 127.3125 C518.86269198 130.16463417 521.68000369 131.14856183 525 132 C533.51542669 133.16630432 539.5961584 130.70235735 546.75 126.3125 C552.9579967 119.93205895 556.24511377 111.48546519 556.25537109 102.64672852 C556.26233002 101.40846817 556.26928894 100.17020782 556.27645874 98.89442444 C556.2757777 98.24030138 556.27509666 97.58617832 556.27439499 96.91223335 C556.27342254 94.84713234 556.28645524 92.78254165 556.30337524 90.71751404 C556.34943397 84.85004571 556.37424622 78.98263341 556.38085938 73.11499023 C556.38589218 69.51574528 556.41022555 65.91703828 556.44618607 62.317976 C556.45593859 60.95337094 556.45834096 59.58869148 556.45301437 58.22406197 C556.40340907 44.89345273 556.40340907 44.89345273 561 39 C566.14789284 34.81733707 570.54682264 34.3958841 577.109375 34.59375 C581.22893577 35.1727153 583.65871446 36.56997415 587 39 C587 39.66 587 40.32 587 41 C588.98 41 590.96 41 593 41 C593 40.34 593 39.68 593 39 C598.60852615 35.09841659 603.17386356 33.84795489 610 35 C612.1015625 36.01171875 612.1015625 36.01171875 614.0625 37.1875 C616.40707222 38.52456528 617.47891 39.07097283 620.1796875 38.703125 C622.51332266 37.91178851 624.74170236 36.98487938 627 36 C628.53611231 35.46300612 630.07785659 34.94183198 631.625 34.4375 C632.29789063 34.20933594 632.97078125 33.98117188 633.6640625 33.74609375 C634.43492187 33.49988281 635.20578125 33.25367188 636 33 C637.09054687 32.64808594 638.18109375 32.29617187 639.3046875 31.93359375 C654.36244964 28.12935997 670.58751286 32.15759064 683.79296875 39.76171875 C699.24295332 50.54471651 706.04609553 64.29620594 711 82 C711.18030762 82.62753174 711.36061523 83.25506348 711.54638672 83.90161133 C715.38263093 101.64785406 711.68109032 121.86983884 702 137 C701.34 137.99 700.68 138.98 700 140 C699.34 140 698.68 140 698 140 C697.92523437 140.55945313 697.85046875 141.11890625 697.7734375 141.6953125 C695.09292098 149.68271022 685.68503655 155.25430665 678.53515625 158.82421875 C677.69855469 159.21222656 676.86195313 159.60023438 676 160 C675.33871094 160.31582031 674.67742188 160.63164062 673.99609375 160.95703125 C667.77889627 163.78050124 661.89567475 165.25238472 655.0703125 165.265625 C653.13478516 165.26949219 653.13478516 165.26949219 651.16015625 165.2734375 C650.16459717 165.26715332 650.16459717 165.26715332 649.14892578 165.26074219 C647.13673502 165.25006228 645.12544413 165.26065562 643.11328125 165.2734375 C636.08899044 165.25943094 629.7775226 164.87685241 623 163 C623.01571045 164.55895996 623.01571045 164.55895996 623.03173828 166.14941406 C623.06797936 170.01086981 623.09091541 173.87231057 623.10986328 177.73388672 C623.1199115 179.40415985 623.13355236 181.07441542 623.15087891 182.74462891 C623.17517926 185.14750504 623.18649487 187.55014827 623.1953125 189.953125 C623.20563507 190.69806213 623.21595764 191.44299927 623.22659302 192.21051025 C623.22740368 195.96927642 623.10367118 198.81173711 621 202 C620.34 202 619.68 202 619 202 C619 202.66 619 203.32 619 204 C618.34 204 617.68 204 617 204 C617 204.66 617 205.32 617 206 C613.36211946 208.29186474 610.2381715 208.26795835 606 208.25 C604.783125 208.25515625 603.56625 208.2603125 602.3125 208.265625 C599.24711209 208.01981559 597.56337048 207.6149234 595 206 C595 205.34 595 204.68 595 204 C594.34 204 593.68 204 593 204 C589.26591577 198.44732631 588.437439 194.62541326 588.609375 188.00390625 C588.61786469 186.75358864 588.61786469 186.75358864 588.62652588 185.47801208 C588.64875805 182.83890168 588.69892695 180.2011938 588.75 177.5625 C588.77008213 175.76369161 588.78832989 173.96486174 588.8046875 172.16601562 C588.84857929 167.77681067 588.91751269 163.38864239 589 159 C586.0280615 160.12451727 583.66559313 161.22293791 581 163 C575.4482266 163.69802999 569.90691573 164.02808752 565.0625 160.9375 C562.25157218 158.76206806 562.25157218 158.76206806 559.5 159.0625 C556.28535441 160.26799209 553.15267809 161.64108703 550 163 C543.21453586 165.5387791 536.49475875 165.36742777 529.3125 165.375 C528.10916016 165.39949219 526.90582031 165.42398438 525.66601562 165.44921875 C517.40473675 165.47599761 510.65233871 164.10812975 503 161 C503 160.34 503 159.68 503 159 C502.46246094 158.94714844 501.92492187 158.89429688 501.37109375 158.83984375 C497.87028372 157.59985338 495.62210308 155.15232366 493.0625 152.5625 C492.52906982 152.0255249 491.99563965 151.4885498 491.44604492 150.93530273 C485.83272373 145.08359461 482.40229777 139.03134178 481 131 C477.45532944 132.18155685 477.18688817 132.90645392 475.3125 136 C467.48443019 148.14700488 457.60977069 156.93751205 444 162 C443.2982666 162.26111572 442.5965332 162.52223145 441.87353516 162.79125977 C434.96504928 165.13374435 428.50913081 165.50443381 421.25 165.4375 C419.52801392 165.42614014 419.52801392 165.42614014 417.77124023 165.41455078 C399.72424144 165.06432218 385.85711759 158.86177677 373.1875 145.9375 C371.94214478 144.67123779 371.94214478 144.67123779 370.67163086 143.37939453 C364.60325991 137.01836026 360.42297909 131.56659971 358 123 C357.70633545 122.02232666 357.70633545 122.02232666 357.40673828 121.02490234 C351.85038715 102.19092344 353.68689301 85.18996154 361 67 C353.91099335 66.89441905 348.98272426 68.38615513 343.33203125 72.7109375 C334.24366076 81.63185058 331.81534566 92.40319394 331.67224121 104.64678955 C331.66696411 105.86163025 331.66168701 107.07647095 331.65625 108.328125 C331.6343158 110.2279715 331.6343158 110.2279715 331.61193848 112.16619873 C331.55773309 116.87908864 331.52028829 121.59199745 331.48431396 126.30505371 C331.44807897 130.9378972 331.39739756 135.57044356 331.34375 140.203125 C331.3384729 141.42606262 331.3331958 142.64900024 331.32775879 143.90899658 C331.31434448 145.04407654 331.30093018 146.17915649 331.28710938 147.34863281 C331.27981812 148.3459845 331.27252686 149.34333618 331.26501465 150.37091064 C330.99495332 153.05006585 330.3685841 154.70504863 329 157 C328.34 157 327.68 157 327 157 C327 157.66 327 158.32 327 159 C326.34 159 325.68 159 325 159 C325 159.66 325 160.32 325 161 C320.21199274 163.80328294 315.40411423 163.65458285 310 163 C307.29895175 161.93257543 305.38859038 160.69855316 303 159 C303 158.34 303 157.68 303 157 C301.68 157 300.36 157 299 157 C299.08701172 157.91265625 299.08701172 157.91265625 299.17578125 158.84375 C299.49731978 165.09078436 298.5933431 170.394074 296.75 176.3125 C296.54544189 176.98152344 296.34088379 177.65054688 296.13012695 178.33984375 C292.60077799 189.05732235 283.52913064 198.97049812 273.94921875 204.8828125 C271.32753168 206.09393765 268.74515903 207.1087146 266 208 C264.88625 208.391875 263.7725 208.78375 262.625 209.1875 C258.01318021 210.22118375 253.37601061 210.89009421 248.6953125 211.53515625 C246.09006176 211.71772372 246.09006176 211.71772372 245 213 C243.08647154 213.12619896 241.16764977 213.17580701 239.25 213.1875 C237.67992187 213.20876953 237.67992187 213.20876953 236.078125 213.23046875 C232.91816521 212.99387278 230.89866673 212.21628589 228 211 C225.6528713 210.52619222 223.29755892 210.09201062 220.9375 209.6875 C211.93688176 208.00168398 201.63864232 205.77743769 196 198 C195.1875 195.625 195.1875 195.625 195 193 C194.896875 191.948125 194.79375 190.89625 194.6875 189.8125 C195.21147304 183.42002895 197.04100081 178.00677966 201.5625 173.375 C208.35820027 170.65671989 214.65845852 171.20075997 221.375 173.9375 C222.53128906 174.47697266 222.53128906 174.47697266 223.7109375 175.02734375 C231.75715363 178.44629907 243.77105322 178.50430755 252.109375 176.10546875 C254.461883 175.0591738 254.461883 175.0591738 256.46875 173.875 C258 173 258 173 260 173 C260 172.34 260 171.68 260 171 C260.66 171 261.32 171 262 171 C263.485 166.05 263.485 166.05 265 161 C264.28384521 161.28294922 263.56769043 161.56589844 262.82983398 161.85742188 C255.06950152 164.71197003 248.30010138 165.63970308 240.0625 165.5 C238.92240479 165.48864014 237.78230957 165.47728027 236.60766602 165.46557617 C228.42075378 165.27638159 221.50173357 164.47216461 214 161 C213.24976563 160.70738281 212.49953125 160.41476563 211.7265625 160.11328125 C203.34590733 156.28601454 192.55822577 146.64383832 189 138 C189 137.01 189 136.02 189 135 C188.01 135 187.02 135 186 135 C185.98324219 135.59425781 185.96648437 136.18851563 185.94921875 136.80078125 C185.13908903 144.5756083 181.26295539 148.58772487 175.921875 153.84765625 C172.79725161 156.14935075 170.82665199 156.72262434 167 157 C167 157.66 167 158.32 167 159 C143.98873443 168.53786863 120.50588502 169.78837186 97 161 C92.87519271 159.02594156 89.06404791 156.70130431 85.25 154.1875 C82.50115446 152.73672041 81.06552899 152.46353243 78 153 C76.32758055 154.32611037 74.66169238 155.66047247 73 157 C57.64818397 166.27602177 40.8258978 169.56144994 23.3125 165.4375 C10.08668926 161.51412009 0.61451547 155.04786747 -6 143 C-6.66 142.67 -7.32 142.34 -8 142 C-7.96519531 142.80824219 -7.93039062 143.61648437 -7.89453125 144.44921875 C-7.86746094 145.51785156 -7.84039062 146.58648437 -7.8125 147.6875 C-7.77769531 148.74324219 -7.74289062 149.79898438 -7.70703125 150.88671875 C-8.05137823 154.54597934 -8.67486941 156.1560776 -11 159 C-16.09931527 162.43887053 -19.33189965 163.49671967 -25.61328125 163.42578125 C-26.65671944 163.42084908 -26.65671944 163.42084908 -27.72123718 163.41581726 C-29.17761736 163.40547018 -30.63395886 163.38564702 -32.09008789 163.35668945 C-34.32395993 163.31227214 -36.55675476 163.29519292 -38.79101562 163.28320312 C-49.63851585 163.18074207 -49.63851585 163.18074207 -52 162 C-56.98353534 161.60131717 -60.45714897 162.37432301 -64.98046875 164.19921875 C-77.45847235 169.14697646 -89.61636057 167.28025121 -102 163 C-105.18282404 161.56274185 -108.079882 159.9076458 -111 158 C-112.03125 157.401875 -113.0625 156.80375 -114.125 156.1875 C-117.32222382 153.7548297 -119.72803744 151.07803951 -122.2890625 148 C-124.09537278 145.88851401 -126.01429669 143.94234735 -128 142 C-127.95359375 143.26972656 -127.9071875 144.53945312 -127.859375 145.84765625 C-127.50044791 160.00042749 -128.79806397 172.45469208 -136 185 C-136.43054688 185.78117188 -136.86109375 186.56234375 -137.3046875 187.3671875 C-146.021254 200.9039751 -159.67294222 207.25702555 -174.94921875 210.65625 C-176.67491829 210.99105048 -178.40389336 211.30975533 -180.13671875 211.60546875 C-182.00613146 211.82436674 -182.00613146 211.82436674 -183 213 C-186.90999424 213.25386802 -190.83274702 213.18523307 -194.75 213.1875 C-196.39742187 213.20586914 -196.39742187 213.20586914 -198.078125 213.22460938 C-199.1403125 213.22654297 -200.2025 213.22847656 -201.296875 213.23046875 C-202.26979492 213.23457764 -203.24271484 213.23868652 -204.24511719 213.24291992 C-207.19380265 212.98291088 -209.30370125 212.18526887 -212 211 C-213.82016907 210.5570385 -215.64104197 210.11608847 -217.46923828 209.70751953 C-228.21301758 207.2870047 -240.17329357 204.22527897 -247 195 C-248.96114648 191.28284789 -249.31264416 188.39983902 -248.39453125 184.2890625 C-246.4257516 178.42290273 -243.78645282 173.85442669 -240 169 C-238.40778574 166.42796157 -236.90656728 163.83182111 -235.4375 161.1875 C-234.963125 160.465625 -234.48875 159.74375 -234 159 C-233.34 159 -232.68 159 -232 159 C-232.12177688 157.08533633 -232.12177688 157.08533633 -233 155 C-234.65630092 153.98292328 -236.32470102 152.98546999 -238 152 C-248.55789002 143.54995728 -253.42466725 131.89794302 -257.2734375 119.23046875 C-257.79654529 117.05234606 -257.79654529 117.05234606 -259 116 C-259.24454338 111.58636254 -259.22861894 107.16674388 -259.24023438 102.74707031 C-259.24984045 100.53671179 -259.28079926 98.32732349 -259.3125 96.1171875 C-259.36950749 88.61088167 -259.11411111 81.95753542 -256 75 C-255.58878906 73.91332031 -255.17757812 72.82664062 -254.75390625 71.70703125 C-254.36074219 70.75183594 -253.96757812 69.79664062 -253.5625 68.8125 C-253.17191406 67.84957031 -252.78132813 66.88664062 -252.37890625 65.89453125 C-244.56439023 49.49068884 -229.99316227 39.94127133 -213.58984375 33.703125 C-189.53871465 25.63737575 -157.99793922 27.76940849 -135 39 C-131.3405319 41.91263787 -129.13893496 44.44426017 -128 49 C-127.8528697 52.00856097 -127.88199758 54.99093829 -128 58 C-123.89149661 54.50340137 -119.99156962 51.00797326 -116.375 47 C-103.54092404 33.91178392 -80.9466421 29.04409286 -63.3125 28.8125 C-60 29 -60 29 -58.2109375 29.4921875 C-55.24199516 30.17410005 -52.35599374 30.19734078 -49.3125 30.3125 C-37.52590816 30.93561841 -26.07013943 33.99184607 -15 38 C-14.01 38.33 -13.02 38.66 -12 39 C-11.98541748 38.18321777 -11.97083496 37.36643555 -11.95581055 36.52490234 C-11.88113077 32.8078024 -11.78453388 29.09158081 -11.6875 25.375 C-11.65366211 23.44720703 -11.65366211 23.44720703 -11.61914062 21.48046875 C-11.58369141 20.23652344 -11.54824219 18.99257813 -11.51171875 17.7109375 C-11.48553467 16.56931152 -11.45935059 15.42768555 -11.43237305 14.25146484 C-10.95235091 10.64167671 -9.79063241 8.14767746 -8 5 C-7.01 5 -6.02 5 -5 5 C-5 4.34 -5 3.68 -5 3 C-3.35 2.67 -1.7 2.34 0 2 C0 1.34 0 0.68 0 0 Z M230 70 C229.01902344 70.55816406 228.03804687 71.11632812 227.02734375 71.69140625 C223.41962045 74.44258622 221.76812873 77.11053655 219.6875 81.0625 C219.34138672 81.68705078 218.99527344 82.31160156 218.63867188 82.95507812 C213.83042104 91.73739982 213.88755815 102.07080714 215.4609375 111.87109375 C217.69758707 119.25203733 222.40425943 126.87766215 229 131 C234.92499835 133.75581318 241.40043858 134.0269337 247.65625 132.2421875 C252.54967535 130.37030491 256.69682724 128.00221355 261 125 C262.65369357 124.30177383 264.31727014 123.62501395 266 123 C267.69074924 121.30925076 267.12749329 119.18457861 267.12939453 116.86938477 C267.13412277 115.2274691 267.13412277 115.2274691 267.13894653 113.55238342 C267.1369223 112.36076096 267.13489807 111.16913849 267.1328125 109.94140625 C267.13376923 108.72678207 267.13472595 107.5121579 267.13571167 106.26072693 C267.13639377 103.68578032 267.13453741 101.110832 267.13037109 98.53588867 C267.12502789 94.58313142 267.13031274 90.63048804 267.13671875 86.67773438 C267.13605788 84.18229141 267.13477654 81.68684853 267.1328125 79.19140625 C267.13483673 78.00180801 267.13686096 76.81220978 267.13894653 75.58656311 C267.13579437 74.48880051 267.13264221 73.3910379 267.12939453 72.26000977 C267.12859894 71.2903981 267.12780334 70.32078644 267.12698364 69.3217926 C267.15296272 66.97450781 267.15296272 66.97450781 266 65 C253.2505401 62.58670938 241.26757014 63.44510178 230 70 Z M394.3671875 78.296875 C387.50894258 89.57168601 386.98160268 98.68059096 390.05078125 111.36328125 C391.02321533 114.06448704 391.87964334 115.14818456 394 117 C394.45375 117.78375 394.9075 118.5675 395.375 119.375 C399.43921354 125.94026802 404.88816656 129.1309848 411.75 132.25 C421.48954759 134.49758791 428.68593215 132.77663872 437.08984375 127.75 C444.39567949 122.81400349 449.76977316 115.55270952 452 107 C452.23678302 104.34307424 452.38131214 101.84049091 452.375 99.1875 C452.37338867 98.48189941 452.37177734 97.77629883 452.37011719 97.04931641 C452.23289801 91.19866748 451.06883549 86.92712687 448 82 C447.401875 80.96875 446.80375 79.9375 446.1875 78.875 C439.55363359 70.15620415 432.55996665 65.53192496 421.51171875 63.5546875 C410.53727314 62.96990354 400.54043315 69.6129792 394.3671875 78.296875 Z M629.1875 74.6875 C621.97457248 85.6099331 622.50823118 96.59841525 622.75 109.1875 C622.77010157 111.01625642 622.78834585 112.84503424 622.8046875 114.67382812 C622.84838017 119.11642185 622.91720354 123.55797004 623 128 C625.49945318 128.83113161 628.00201226 129.6493479 630.5078125 130.4609375 C631.20495361 130.69417725 631.90209473 130.92741699 632.62036133 131.16772461 C641.58297909 134.04467826 650.8953509 134.90820564 659.625 130.75 C669.59715456 124.87237248 674.18290358 118.00729515 677.59375 107.1015625 C679.84918692 95.43401383 677.2997292 85.1940112 671.3125 75.1875 C667.33919654 69.61286517 661.93842414 65.22238651 655.0625 64 C644.44212664 63.47319577 636.72503158 67.48496982 629.1875 74.6875 Z M-202 88 C-204.99932969 92.65413228 -205.79095201 96.59335541 -205 102 C-203.26040027 106.66945189 -200.8654373 109.85371383 -197 113 C-193.13235391 114.25923361 -189.77353428 113.92955131 -185.79296875 113.5078125 C-184.89473389 113.41387207 -183.99649902 113.31993164 -183.07104492 113.22314453 C-182.04587769 113.11268799 -182.04587769 113.11268799 -181 113 C-180.97534608 108.46102295 -180.95716211 103.92208457 -180.94506836 99.38305664 C-180.9400286 97.83780234 -180.9331968 96.29255284 -180.92456055 94.74731445 C-180.91247924 92.53074971 -180.90676827 90.31424782 -180.90234375 88.09765625 C-180.89460182 87.05545677 -180.89460182 87.05545677 -180.88670349 85.99220276 C-180.88650723 84.3277067 -180.93810871 82.66334501 -181 81 C-182.19308138 79.58799171 -182.19308138 79.58799171 -185.625 79.75 C-192.63071251 79.86279322 -197.53857484 82.6710755 -202 88 Z M-79.8125 85.8125 C-83.55814104 91.27043408 -84.81399137 96.40173659 -84 103 C-82.85304315 107.39143069 -81.59041758 111.06315725 -78 114 C-76.05095588 114.86269236 -76.05095588 114.86269236 -73.875 115.3125 C-73.17117187 115.49425781 -72.46734375 115.67601562 -71.7421875 115.86328125 C-67.66245662 116.06668664 -63.93387814 115.01045416 -60 114 C-59.950623 109.47934572 -59.91429177 104.95884783 -59.89013672 100.43798828 C-59.88006882 98.89954902 -59.86641354 97.36112893 -59.84912109 95.82275391 C-59.82490683 93.61355867 -59.81352509 91.40461605 -59.8046875 89.1953125 C-59.79436493 88.50567413 -59.78404236 87.81603577 -59.77340698 87.10549927 C-59.77300522 85.40199094 -59.87808974 83.69914057 -60 82 C-61.96641297 79.60367307 -61.96641297 79.60367307 -65.6875 79.6875 C-71.57274903 79.86874861 -75.62278716 81.62278716 -79.8125 85.8125 Z M41 82 C40.60049384 86.22056059 40.67101199 90.45624194 40.68432617 94.69360352 C40.68747276 96.79431675 40.66408061 98.893603 40.63867188 100.99414062 C40.63639739 102.33593573 40.63569608 103.67773461 40.63671875 105.01953125 C40.63373779 106.23745361 40.63075684 107.45537598 40.62768555 108.71020508 C41.0271223 112.23965438 41.9517913 114.13873605 44 117 C45.155 116.71125 46.31 116.4225 47.5 116.125 C51.66666667 115.08333333 55.83333333 114.04166667 60 113 C60 102.11 60 91.22 60 80 C57.23625 79.95875 54.4725 79.9175 51.625 79.875 C50.75568848 79.85679199 49.88637695 79.83858398 48.99072266 79.81982422 C44.52301704 79.59079088 44.52301704 79.59079088 41 82 Z M180 118 C179.22757731 119.83700789 179.22757731 119.83700789 179 122 C180.22954016 123.81299492 180.22954016 123.81299492 182 125 C182.66 125 183.32 125 184 125 C183.67 122.69 183.34 120.38 183 118 C182.01 118 181.02 118 180 118 Z " fill="#010101" transform="translate(289,0)"/>
<path d="M0 0 C2.09985346 0.0288915 4.19715213 0.02056897 6.29711914 0.00756836 C20.85655294 0.02691602 33.9478869 3.07811453 47.79907227 7.46655273 C47.86942874 21.45383075 47.92199003 35.44108098 47.95450878 49.42850018 C47.97012125 55.92440137 47.99127859 62.42018314 48.02539062 68.91601562 C48.05814186 75.19245886 48.07595847 81.46878769 48.08370399 87.74530983 C48.08921928 90.13212699 48.09998883 92.51893835 48.11626244 94.90570641 C48.24208231 114.13517227 47.96204844 131.6087153 34.03344727 146.42749023 C27.92435789 152.0025683 20.76194456 155.4320456 12.79907227 157.46655273 C12.02692383 157.67151367 11.25477539 157.87647461 10.45922852 158.08764648 C-8.09131949 162.23222193 -28.19094247 159.65360172 -45.20092773 151.46655273 C-45.88413086 151.14041992 -46.56733398 150.81428711 -47.27124023 150.47827148 C-48.59232437 149.83001857 -49.89950062 149.15341705 -51.20092773 148.46655273 C-49.91168418 145.0645284 -48.43572014 141.96090719 -46.59936523 138.82202148 C-46.10952148 137.9809082 -45.61967773 137.13979492 -45.11499023 136.27319336 C-44.60709961 135.40887695 -44.09920898 134.54456055 -43.57592773 133.65405273 C-43.06030273 132.77040039 -42.54467773 131.88674805 -42.01342773 130.97631836 C-40.7456166 128.80460484 -39.47470426 126.63477093 -38.20092773 124.46655273 C-37.52803711 124.74241211 -36.85514648 125.01827148 -36.16186523 125.30249023 C-22.95726502 130.49374467 -8.95858249 135.05891762 5.00219727 129.44311523 C10.06072526 126.69391524 12.63463172 122.66121004 14.79907227 117.46655273 C15.93433683 113.0968858 15.97033671 108.76603121 16.00439453 104.27978516 C16.01429413 103.46950867 16.02419373 102.65923218 16.03439331 101.82440186 C16.06587845 99.15697104 16.09071419 96.48952245 16.11547852 93.82202148 C16.13605927 91.96828255 16.15705603 90.11454819 16.17845154 88.26081848 C16.23355643 83.38977776 16.28301666 78.5186955 16.33129883 73.64758301 C16.38159857 68.67379067 16.43724035 63.7000584 16.49243164 58.72631836 C16.59987149 48.97311451 16.70134777 39.21985843 16.79907227 29.46655273 C4.11860017 27.58647091 -9.35366826 26.74378752 -20.22045898 34.55249023 C-26.24851168 40.37841887 -28.32598279 48.40972697 -28.51342773 56.52905273 C-28.43138697 63.83068038 -27.33565688 70.60245591 -22.62280273 76.41186523 C-17.3339512 81.34336194 -11.67428964 82.71351276 -4.48608398 82.63452148 C-1.04494738 82.38158324 2.37529673 81.89452468 5.79907227 81.46655273 C5.79907227 89.38655273 5.79907227 97.30655273 5.79907227 105.46655273 C-4.48495785 111.34314137 -13.639746 112.86780118 -25.20092773 110.21655273 C-38.28341683 106.64263967 -47.72102028 99.19612631 -54.73217773 87.43920898 C-62.45029449 71.81823331 -63.42435816 53.80909127 -58.52124023 37.22827148 C-53.35081945 22.49716138 -43.32754899 12.15736187 -29.37744141 5.39990234 C-19.62198881 1.21649289 -10.50506038 -0.15686454 0 0 Z " fill="#FCFCFC" transform="translate(102.200927734375,41.533447265625)"/>
<path d="M0 0 C12.520176 8.30123538 19.47215361 21.32994116 22.54199219 35.7890625 C23.23215997 40.25671349 23.17350374 44.70058972 23.11328125 49.2109375 C23.11231445 50.62729492 23.11231445 50.62729492 23.11132812 52.07226562 C23.06675184 58.99149633 23.06675184 58.99149633 21.92578125 61.2734375 C-3.15421875 61.2734375 -28.23421875 61.2734375 -54.07421875 61.2734375 C-48.35637785 72.7204894 -48.35637785 72.7204894 -38.26171875 79.1484375 C-25.4220038 82.81379202 -10.69639595 80.84664921 0.9453125 74.671875 C3.32355004 73.26821592 5.62489715 71.79838422 7.92578125 70.2734375 C10.13005397 73.36600587 12.31118332 76.47419278 14.48828125 79.5859375 C15.4309082 80.90754883 15.4309082 80.90754883 16.39257812 82.25585938 C16.98232422 83.10341797 17.57207031 83.95097656 18.1796875 84.82421875 C18.72955322 85.60450439 19.27941895 86.38479004 19.84594727 87.1887207 C20.20229248 87.87667725 20.5586377 88.56463379 20.92578125 89.2734375 C18.9791094 95.11345305 12.32173512 98.05592833 7.05078125 100.734375 C-11.47790833 108.86531591 -32.96816934 110.58709981 -52.07421875 103.2734375 C-55.2817702 101.85050295 -58.16446569 100.22860754 -61.07421875 98.2734375 C-61.74710937 97.85578125 -62.42 97.438125 -63.11328125 97.0078125 C-74.79859214 89.1574492 -81.26315003 75.68810903 -84.07421875 62.2734375 C-84.51380233 58.18000318 -84.59937569 54.13834815 -84.57421875 50.0234375 C-84.56849854 48.92950684 -84.56277832 47.83557617 -84.55688477 46.70849609 C-84.21351241 31.07060235 -78.83789896 17.55253757 -67.51171875 6.5234375 C-48.82448606 -9.39214142 -21.37140308 -12.0027448 0 0 Z " fill="#FCFCFC" transform="translate(444.07421875,47.7265625)"/>
<path d="M0 0 C1.1147319 -0.00442612 1.1147319 -0.00442612 2.25198364 -0.00894165 C13.75764792 -0.01936021 24.26645922 0.87569855 35.3125 4.3125 C38.6125 5.3025 41.9125 6.2925 45.3125 7.3125 C45.3125 41.3025 45.3125 75.2925 45.3125 110.3125 C35.0825 110.3125 24.8525 110.3125 14.3125 110.3125 C14.3125 83.5825 14.3125 56.8525 14.3125 29.3125 C1.52511028 27.48573004 -11.77512111 26.57455649 -22.70703125 34.46875 C-28.28586139 39.6624538 -30.42331565 46.10587223 -30.890625 53.546875 C-31.02163791 63.37284294 -30.19142401 71.5439241 -23.6875 79.3125 C-18.86035784 82.8313513 -14.23826168 84.45829215 -8.3125 84.4375 C-7.58289063 84.44007812 -6.85328125 84.44265625 -6.1015625 84.4453125 C-3.2758433 84.28985222 -0.47898729 83.77774788 2.3125 83.3125 C2.3125 91.5625 2.3125 99.8125 2.3125 108.3125 C-8.88953912 113.91351956 -20.00486455 115.42836993 -32.1875 111.75 C-43.66579892 107.26530944 -52.63864018 98.02291539 -58 87.0625 C-65.30843716 69.81697798 -66.39259224 50.94208832 -59.6875 33.3125 C-52.4063565 17.46660715 -39.59942099 8.18154194 -23.6328125 2.2578125 C-15.88490857 -0.22891529 -8.05199675 0.02783874 0 0 Z " fill="#FDFDFD" transform="translate(225.6875,41.6875)"/>
<path d="M0 0 C0.9178125 0.40089844 1.835625 0.80179688 2.78125 1.21484375 C15.93192929 7.58701279 25.31115836 18.97645114 30.3125 32.56640625 C35.21835111 48.90220908 34.05850638 65.12072129 25.9375 80.25 C17.06027825 94.18386705 4.14287583 103.35993976 -12 107 C-28.82871416 108.71583088 -42.98286664 105.30910516 -56.55859375 95.0703125 C-66.24425528 87.02104128 -73.83812393 75.53888122 -76 63 C-77.60784724 44.91171857 -75.29091594 30.04915661 -64 15.40625 C-48.55542237 -2.90660634 -22.16900274 -10.3998704 0 0 Z M-47.6328125 31.296875 C-54.49105742 42.57168601 -55.01839732 51.68059096 -51.94921875 64.36328125 C-50.97678467 67.06448704 -50.12035666 68.14818456 -48 70 C-47.54625 70.78375 -47.0925 71.5675 -46.625 72.375 C-42.56078646 78.94026802 -37.11183344 82.1309848 -30.25 85.25 C-20.51045241 87.49758791 -13.31406785 85.77663872 -4.91015625 80.75 C2.39567949 75.81400349 7.76977316 68.55270952 10 60 C10.23678302 57.34307424 10.38131214 54.84049091 10.375 52.1875 C10.37338867 51.48189941 10.37177734 50.77629883 10.37011719 50.04931641 C10.23289801 44.19866748 9.06883549 39.92712687 6 35 C5.401875 33.96875 4.80375 32.9375 4.1875 31.875 C-2.44636641 23.15620415 -9.44003335 18.53192496 -20.48828125 16.5546875 C-31.46272686 15.96990354 -41.45956685 22.6129792 -47.6328125 31.296875 Z " fill="#F7F7F7" transform="translate(731,47)"/>
<path d="M0 0 C10.56 0 21.12 0 32 0 C32 9.9 32 19.8 32 30 C42.89 30 53.78 30 65 30 C65 38.91 65 47.82 65 57 C54.11 57 43.22 57 32 57 C32.05106982 64.01188642 32.11403748 71.02156105 32.20751953 78.03271484 C32.23571195 80.41675663 32.25693503 82.80089158 32.27099609 85.18505859 C32.29244869 88.61604452 32.33911364 92.04591224 32.390625 95.4765625 C32.39185364 96.53928375 32.39308228 97.602005 32.39434814 98.69692993 C32.51339143 104.73755613 32.92002461 108.42076697 37 113 C42.03885709 115.51942854 49.62579947 114.74274853 54.859375 113.10546875 C56.9698914 112.15439209 58.99718292 111.15925329 61 110 C63.01846792 113.3224953 65.01353397 116.65828144 67 120 C67.51046875 120.845625 68.0209375 121.69125 68.546875 122.5625 C69.23523438 123.738125 69.23523438 123.738125 69.9375 124.9375 C70.35902344 125.64777344 70.78054688 126.35804688 71.21484375 127.08984375 C72 129 72 129 71 132 C59.57554776 141.15420853 45.18992408 143.555853 31 142 C21.47138677 140.27955594 13.68534749 136.66244256 7.4453125 129.12109375 C4.06158602 124.16563633 2.45329526 118.77390279 1 113 C0.82555642 112.38789547 0.65111284 111.77579094 0.47138309 111.14513779 C-0.03877684 108.82353702 -0.12299208 106.75712309 -0.12025452 104.38092041 C-0.12162918 103.45827896 -0.12300385 102.53563751 -0.12442017 101.58503723 C-0.12082489 100.58018784 -0.11722961 99.57533844 -0.11352539 98.54003906 C-0.11367142 97.47631577 -0.11381744 96.41259247 -0.1139679 95.31663513 C-0.11327106 91.79961103 -0.10548933 88.28263985 -0.09765625 84.765625 C-0.09579126 82.32753529 -0.09436774 79.8894452 -0.09336853 77.45135498 C-0.08954976 71.03325364 -0.0797249 64.61517492 -0.06866455 58.19708252 C-0.0584367 51.64831854 -0.05386796 45.09955091 -0.04882812 38.55078125 C-0.03810209 25.7005093 -0.02051043 12.85026007 0 0 Z " fill="#FAFAFA" transform="translate(288,13)"/>
<path d="M0 0 C0.09388036 14.21347574 0.16392464 28.42690266 0.20724869 42.64062595 C0.22805063 49.24189125 0.25623268 55.84294704 0.30175781 62.4440918 C0.34547976 68.82429478 0.3691926 75.20429727 0.37950897 81.5846386 C0.38685323 84.0088917 0.40119377 86.43313485 0.42292023 88.85730171 C0.72023589 123.43148944 0.72023589 123.43148944 -11 137 C-17.51223845 142.99571565 -24.53515778 146.57167411 -33 149 C-33.59683594 149.1750708 -34.19367187 149.3501416 -34.80859375 149.53051758 C-39.46743392 150.52861803 -44.31747756 150.22794295 -49.0625 150.25 C-50.14466797 150.270625 -51.22683594 150.29125 -52.34179688 150.3125 C-61.72019114 150.35750729 -70.20688187 148.77761051 -78.625 144.5 C-79.44226563 144.0978125 -80.25953125 143.695625 -81.1015625 143.28125 C-83 142 -83 142 -84 139 C-82.92745123 136.48301368 -81.45196548 134.33194455 -80 132 C-77.11862391 132.93450035 -74.26067709 133.8996175 -71.43359375 134.98828125 C-65.84427004 137.12606153 -60.97682012 138.62051936 -55 139 C-54.26652344 139.0515625 -53.53304687 139.103125 -52.77734375 139.15625 C-42.21375865 139.56848747 -29.52738239 137.70383414 -21.328125 130.5390625 C-13.24061145 122.01113979 -11.84333646 111.29733484 -11.88647461 100.0690918 C-11.88632858 99.07349747 -11.88618256 98.07790314 -11.8860321 97.05213928 C-11.88672768 93.76781012 -11.89450348 90.48353798 -11.90234375 87.19921875 C-11.90420919 84.91950003 -11.9056325 82.63978091 -11.90663147 80.36006165 C-11.91044671 74.36448049 -11.92026854 68.36892362 -11.93133545 62.37335205 C-11.9415709 56.253462 -11.94613367 50.13356802 -11.95117188 44.01367188 C-11.96189168 32.00910392 -11.97895621 20.00455398 -12 8 C-13.90143949 7.50861318 -15.80400607 7.02158649 -17.70703125 6.53637695 C-18.76639893 6.26469193 -19.8257666 5.9930069 -20.91723633 5.71308899 C-24.95232646 4.77971276 -28.87073152 4.36113239 -33 4.1875 C-34.15036743 4.13396362 -34.15036743 4.13396362 -35.32397461 4.0793457 C-49.57675539 3.59364226 -61.66631473 7.34572523 -72.4375 16.875 C-82.91326621 27.63074214 -84.39892356 40.99341734 -84.21875 55.21484375 C-83.85772563 66.69316216 -80.22221676 77.77778324 -72 86 C-61.62109544 93.05609142 -50.51296144 94.45539048 -38.19140625 92.5703125 C-31.35349907 90.79792696 -25.75307542 86.9921531 -20 83 C-19.39606709 87.14700601 -19.1572337 90.8757124 -20 95 C-22.85618618 98.08825131 -26.12956442 99.46795258 -30 101 C-30.721875 101.33644531 -31.44375 101.67289062 -32.1875 102.01953125 C-42.01413453 105.86244725 -56.25343175 105.72844959 -66.1875 102.375 C-71.17664495 100.14979451 -75.699046 97.36063136 -80 94 C-80.61617188 93.52175781 -81.23234375 93.04351562 -81.8671875 92.55078125 C-91.76934946 83.81487392 -96.1216068 69.62611779 -97.17578125 56.87353516 C-98.21308373 39.9618 -94.85973302 24.49766685 -83.67578125 11.24609375 C-61.95156761 -11.63765406 -27.63469103 -12.07391008 0 0 Z " fill="#F7F7F7" transform="translate(578,50)"/>
<path d="M0 0 C2.29079716 1.67581806 4.33990768 3.43013924 6.390625 5.390625 C7.01453125 5.98617187 7.6384375 6.58171875 8.28125 7.1953125 C18.96128168 18.3861283 22.97898261 33.15066558 22.828125 48.265625 C22.82200195 49.31556641 22.81587891 50.36550781 22.80957031 51.44726562 C22.64926866 59.41302488 21.63893402 66.04809315 18.390625 73.390625 C18.101875 74.11636719 17.813125 74.84210938 17.515625 75.58984375 C11.89933223 88.35186615 1.12506693 97.30406321 -11.609375 102.390625 C-27.0698673 107.30808438 -41.97465221 106.37537906 -56.609375 99.390625 C-56.609375 95.760625 -56.609375 92.130625 -56.609375 88.390625 C-54.16796875 89.39973958 -51.7265625 90.40885417 -49.28515625 91.41796875 C-38.61860184 95.29530021 -23.27132405 95.30340485 -12.92578125 90.640625 C-12.16136719 90.228125 -11.39695312 89.815625 -10.609375 89.390625 C-9.81402344 88.978125 -9.01867187 88.565625 -8.19921875 88.140625 C1.43969538 82.47635493 6.50604054 73.14769167 9.51171875 62.59765625 C13.15274526 47.33741803 10.28155097 31.76986665 2.390625 18.390625 C-2.58580562 10.69824411 -9.994044 6.98580444 -18.69140625 4.8984375 C-29.20913298 3.06804329 -38.89490587 4.40938831 -48.15234375 9.8984375 C-56.95497547 16.2386915 -62.81546459 25.68405855 -64.609375 36.390625 C-64.70413906 38.00644989 -64.75487749 39.62529931 -64.76759338 41.24385071 C-64.78227661 42.66773857 -64.78227661 42.66773857 -64.79725647 44.12039185 C-64.80301193 45.14969818 -64.8087674 46.17900452 -64.81469727 47.23950195 C-64.82954666 48.87919701 -64.82954666 48.87919701 -64.84469604 50.55201721 C-64.87625379 54.16095828 -64.90104595 57.76991251 -64.92578125 61.37890625 C-64.94635571 63.88283122 -64.96735231 66.38675275 -64.98875427 68.89067078 C-65.03828678 74.80494696 -65.08356527 80.719246 -65.12677664 86.63357085 C-65.1810766 94.02983829 -65.24199251 101.42604877 -65.30273438 108.82226562 C-65.41025369 122.01168023 -65.51171253 135.20113399 -65.609375 148.390625 C-69.239375 148.390625 -72.869375 148.390625 -76.609375 148.390625 C-76.609375 97.900625 -76.609375 47.410625 -76.609375 -4.609375 C-73.309375 -4.609375 -70.009375 -4.609375 -66.609375 -4.609375 C-66.279375 1.330625 -65.949375 7.270625 -65.609375 13.390625 C-64.31 11.864375 -63.010625 10.338125 -61.671875 8.765625 C-57.38316398 4.02863997 -53.24516525 0.40139775 -47.609375 -2.609375 C-46.84753906 -3.021875 -46.08570313 -3.434375 -45.30078125 -3.859375 C-31.17976323 -10.20391976 -12.92706099 -7.97297774 0 0 Z " fill="#F7F7F7" transform="translate(966.609375,49.609375)"/>
<path d="M0 0 C1.37478516 0.01740234 1.37478516 0.01740234 2.77734375 0.03515625 C3.69644531 0.04417969 4.61554687 0.05320313 5.5625 0.0625 C6.27277344 0.07410156 6.98304688 0.08570313 7.71484375 0.09765625 C7.72697403 1.27251083 7.72697403 1.27251083 7.73934937 2.47109985 C7.81783522 9.9132436 7.90528009 17.35520627 8.00237083 24.79712868 C8.05196125 28.62155274 8.09828879 32.44595403 8.13671875 36.27050781 C8.17404948 39.97298454 8.22052626 43.67525113 8.27290726 47.3775444 C8.29120124 48.77822495 8.30639742 50.17895008 8.31818771 51.57970047 C8.43155392 64.60295324 9.0109898 77.19977341 14.71484375 89.09765625 C15.04355469 89.82597656 15.37226562 90.55429688 15.7109375 91.3046875 C17.20382617 93.97097505 18.82068028 94.17398706 21.71484375 95.09765625 C22.32070313 95.35675781 22.9265625 95.61585938 23.55078125 95.8828125 C33.49230623 99.85572676 44.14904405 99.13652227 54.03125 95.34375 C63.38208078 91.00180674 68.75030089 84.04750033 72.78125 74.59765625 C74.95142057 68.3911781 75.82626251 62.2983433 75.92016602 55.72509766 C75.94011124 54.48426422 75.96005646 53.24343079 75.98060608 51.96499634 C75.99758496 50.62640504 76.01446396 49.28781248 76.03125 47.94921875 C76.05184553 46.5677329 76.07284265 45.18625298 76.09422302 43.80477905 C76.14917553 40.18484327 76.19870199 36.56485317 76.24707031 32.94482422 C76.29748236 29.2444175 76.35306513 25.54408878 76.40820312 21.84375 C76.51545616 14.5951183 76.61697275 7.34642134 76.71484375 0.09765625 C80.34484375 0.09765625 83.97484375 0.09765625 87.71484375 0.09765625 C87.71484375 35.40765625 87.71484375 70.71765625 87.71484375 107.09765625 C84.41484375 107.09765625 81.11484375 107.09765625 77.71484375 107.09765625 C77.38484375 100.82765625 77.05484375 94.55765625 76.71484375 88.09765625 C75.74546875 89.43828125 74.77609375 90.77890625 73.77734375 92.16015625 C67.08616949 100.66769717 58.56203287 107.07829905 47.71484375 109.09765625 C35.25184694 110.41556047 22.58453013 110.59503137 12.01953125 103.21484375 C5.71086482 98.08330458 2.32499291 92.74493538 -0.28515625 85.09765625 C-0.5171875 84.4428125 -0.74921875 83.78796875 -0.98828125 83.11328125 C-4.27859732 72.11422468 -3.43591155 59.55596252 -3.41796875 48.203125 C-3.41864464 46.83547448 -3.41961702 45.46782407 -3.42086792 44.10017395 C-3.42232502 41.26916329 -3.42025101 38.43818462 -3.41552734 35.60717773 C-3.40975955 31.973362 -3.41316534 28.33961901 -3.41909981 24.70580578 C-3.42269921 21.89809104 -3.42157095 19.09039384 -3.41897202 16.2826786 C-3.41798089 14.29002967 -3.42101687 12.29738006 -3.42410278 10.30473328 C-3.42095062 9.10870987 -3.41779846 7.91268646 -3.41455078 6.68041992 C-3.41375519 5.62344406 -3.41295959 4.5664682 -3.41213989 3.47746277 C-3.24412095 0.32861164 -3.14809737 0.13453408 0 0 Z " fill="#F6F6F6" transform="translate(781.28515625,44.90234375)"/>
<path d="M0 0 C9.97944299 7.13538588 15.44207526 16.86942509 18.31640625 28.65625 C18.59097656 29.60371094 18.59097656 29.60371094 18.87109375 30.5703125 C21.4368872 42.58902919 17.88305231 54.26454242 11.70703125 64.5703125 C5.09473554 74.48875607 -3.92196805 81.00644697 -15.68359375 83.65625 C-25.37811562 84.668703 -35.08503079 84.64745924 -43.68359375 79.65625 C-44.83021484 79.02009766 -44.83021484 79.02009766 -46 78.37109375 C-57.07122533 71.64593319 -63.6181135 61.79994306 -66.99609375 49.40625 C-69.80802882 34.3461747 -66.9589277 21.34249309 -58.68359375 8.65625 C-44.29716062 -9.7499218 -19.05104975 -12.16405054 0 0 Z M-50.31640625 17.953125 C-57.17465117 29.22793601 -57.70199107 38.33684096 -54.6328125 51.01953125 C-53.66037842 53.72073704 -52.80395041 54.80443456 -50.68359375 56.65625 C-50.22984375 57.44 -49.77609375 58.22375 -49.30859375 59.03125 C-45.24438021 65.59651802 -39.79542719 68.7872348 -32.93359375 71.90625 C-23.19404616 74.15383791 -15.9976616 72.43288872 -7.59375 67.40625 C-0.28791426 62.47025349 5.08617941 55.20895952 7.31640625 46.65625 C7.55318927 43.99932424 7.69771839 41.49674091 7.69140625 38.84375 C7.68979492 38.13814941 7.68818359 37.43254883 7.68652344 36.70556641 C7.54930426 30.85491748 6.38524174 26.58337687 3.31640625 21.65625 C2.71828125 20.625 2.12015625 19.59375 1.50390625 18.53125 C-5.12996016 9.81245415 -12.1236271 5.18817496 -23.171875 3.2109375 C-34.14632061 2.62615354 -44.1431606 9.2692292 -50.31640625 17.953125 Z " fill="#020202" transform="translate(733.68359375,60.34375)"/>
<path d="M0 0 C1.15048828 0.0009668 1.15048828 0.0009668 2.32421875 0.00195312 C7.96817801 0.04658901 7.96817801 0.04658901 10.25 1.1875 C9.26 4.4875 8.27 7.7875 7.25 11.1875 C6.03376953 11.11789063 6.03376953 11.11789063 4.79296875 11.046875 C-6.43123547 10.68101037 -15.07206603 12.8929013 -23.75 20.22265625 C-33.37846507 29.68187096 -36.15009963 42.12773307 -36.35565186 55.26570129 C-36.35688049 56.57665268 -36.35810913 57.88760406 -36.359375 59.23828125 C-36.37440168 60.6321958 -36.39113799 62.02609285 -36.40948486 63.41996765 C-36.45266884 67.04150329 -36.4730467 70.66279911 -36.48822021 74.2845459 C-36.50797077 77.99908349 -36.54991866 81.71336855 -36.58984375 85.42773438 C-36.66461337 92.68092084 -36.71522416 99.93399959 -36.75 107.1875 C-40.38 107.1875 -44.01 107.1875 -47.75 107.1875 C-47.75 72.2075 -47.75 37.2275 -47.75 1.1875 C-44.45 1.1875 -41.15 1.1875 -37.75 1.1875 C-37.42 7.7875 -37.09 14.3875 -36.75 21.1875 C-35.739375 19.82625 -34.72875 18.465 -33.6875 17.0625 C-24.9919093 5.93982676 -14.29099514 -0.23287213 0 0 Z " fill="#F7F7F7" transform="translate(646.75,44.8125)"/>
<path d="M0 0 C4.29977113 4.5380717 4.53856348 6.63081641 6.24609375 13.4609375 C-9.59390625 13.4609375 -25.43390625 13.4609375 -41.75390625 13.4609375 C-40.79942078 6.77953924 -40.32009353 3.99474048 -35.75390625 -0.5390625 C-24.95851187 -8.25289863 -10.34399102 -9.07690971 0 0 Z " fill="#020202" transform="translate(431.75390625,72.5390625)"/>
</svg>
