<?xml version="1.0" encoding="UTF-8"?>
<svg version="1.1" xmlns="http://www.w3.org/2000/svg" width="922" height="193">
<path d="M0 0 C16.50995204 -0.34205433 35.28487702 0.3801884 50.23046875 8.12109375 C50.30076016 22.27329755 50.35335517 36.42547401 50.38590527 50.57781696 C50.40153119 57.15000291 50.42271348 63.7220712 50.45678711 70.29418945 C50.48948989 76.64194577 50.50734487 82.98958923 50.51510048 89.33742332 C50.52062438 91.75380415 50.53141106 94.1701791 50.54765892 96.58651161 C50.569578 99.98269408 50.57242959 103.37841587 50.57104492 106.7746582 C50.58183075 107.76369141 50.59261658 108.75272461 50.60372925 109.77172852 C50.56125946 119.45903981 48.49427063 127.95312532 43.23046875 136.12109375 C42.57046875 136.12109375 41.91046875 136.12109375 41.23046875 136.12109375 C40.89982422 137.21744141 40.89982422 137.21744141 40.5625 138.3359375 C37.47218429 144.79750672 30.16487911 148.93374138 23.6875 151.5546875 C20.54967895 152.52262552 17.42754755 153.3751087 14.23046875 154.12109375 C13.33871948 154.3826123 13.33871948 154.3826123 12.42895508 154.64941406 C-4.92206346 158.37203125 -28.34409821 156.31620184 -43.64453125 146.9765625 C-45.04339752 146.06017557 -46.41108116 145.09639125 -47.76953125 144.12109375 C-47.07011529 140.97372193 -46.00874427 138.09520499 -44.76953125 135.12109375 C-44.10953125 135.12109375 -43.44953125 135.12109375 -42.76953125 135.12109375 C-42.42921875 133.91453125 -42.42921875 133.91453125 -42.08203125 132.68359375 C-40.43321537 128.20823636 -38.16408713 124.23388057 -35.76953125 120.12109375 C-29.14453125 120.87109375 -29.14453125 120.87109375 -25.76953125 123.12109375 C-17.13482343 127.02641804 -5.05170784 128.14505859 4.03125 125.21875 C6.37501196 124.061445 6.37501196 124.061445 9.23046875 122.12109375 C9.89046875 122.12109375 10.55046875 122.12109375 11.23046875 122.12109375 C11.92466438 120.46570417 12.58150639 118.79473352 13.23046875 117.12109375 C13.73940674 115.93845947 14.24834473 114.7558252 14.77270508 113.53735352 C17.21856227 106.10253487 16.71341192 98.14065755 16.7421875 90.3984375 C16.75905537 88.68492869 16.77720842 86.9714321 16.79658508 85.25794983 C16.84386255 80.77495136 16.87381527 76.29200243 16.90002441 71.80883789 C16.92994291 67.22337057 16.97643415 62.63807358 17.02148438 58.05273438 C17.10726392 49.07561035 17.17472125 40.09845103 17.23046875 31.12109375 C15.96517334 30.9602832 14.69987793 30.79947266 13.39624023 30.63378906 C12.68451157 30.54333313 11.9727829 30.4528772 11.23948669 30.35968018 C2.17187704 29.28283137 -4.93532105 30.61102307 -13.01953125 34.80859375 C-17.92198981 38.93111572 -20.86820076 43.75544713 -21.76953125 50.12109375 C-21.88489617 52.26473502 -21.94438869 54.41188764 -21.95703125 56.55859375 C-21.97121094 57.65042969 -21.98539063 58.74226563 -22 59.8671875 C-21.58046249 65.79048822 -19.60518085 70.59699422 -15.76953125 75.12109375 C-10.10087651 78.80913418 -4.44300733 79.99589399 2.23046875 79.12109375 C5.64518799 78.23649347 5.64518799 78.23649347 8.23046875 77.12109375 C10.89266477 79.78328977 9.51455403 87.4158385 9.54296875 90.99609375 C9.58647461 92.81173828 9.58647461 92.81173828 9.63085938 94.6640625 C9.63923828 95.82292969 9.64761719 96.98179687 9.65625 98.17578125 C9.67083252 99.24296387 9.68541504 100.31014648 9.70043945 101.40966797 C9.23046875 104.12109375 9.23046875 104.12109375 7.43823242 105.91845703 C-1.78937173 110.94501658 -15.66367448 110.39206647 -25.64453125 107.99609375 C-37.77109563 104.08136201 -45.86211504 96.58613031 -51.7109375 85.40625 C-53.41385016 81.73022084 -54.67395346 78.01724226 -55.76953125 74.12109375 C-56.07890625 73.12916016 -56.07890625 73.12916016 -56.39453125 72.1171875 C-60.45341759 57.26279096 -57.84587645 40.45382249 -50.83203125 26.93359375 C-48.55549133 23.1069475 -46.14527575 20.06405049 -42.76953125 17.12109375 C-42.08890625 16.33734375 -41.40828125 15.55359375 -40.70703125 14.74609375 C-29.1078432 4.38086187 -15.16785919 0.48725765 0 0 Z " fill="#000063" transform="translate(61.76953125,31.87890625)"/>
<path d="M0 0 C1.216875 0.01675781 2.43375 0.03351562 3.6875 0.05078125 C14.20777852 0.52043654 25.58087928 3.20284852 35 8 C35.0231211 20.89072255 35.04091389 33.7814402 35.05181217 46.67217922 C35.05704151 52.65719266 35.06414008 58.64219196 35.07543945 64.62719727 C35.08626653 70.39783429 35.09227645 76.16845768 35.09487724 81.93910408 C35.09673182 84.14602943 35.10035304 86.352954 35.10573006 88.55987358 C35.1129381 91.63946041 35.11399104 94.71899014 35.11352539 97.79858398 C35.11712067 98.72071182 35.12071594 99.64283966 35.12442017 100.59291077 C35.11405216 106.88594784 35.11405216 106.88594784 34 108 C23.11 108 12.22 108 1 108 C1 82.59 1 57.18 1 31 C-16.01401569 29.36253952 -16.01401569 29.36253952 -30.4375 36.0625 C-36.13319431 41.65293508 -38.17390776 48.07052481 -38.5 55.9375 C-38.21726619 63.50306685 -36.33053907 70.2147216 -31.4375 76.0625 C-25.5592879 80.734925 -19.96929701 81.4016389 -12.53515625 80.80078125 C-10.68870919 80.54368103 -8.84413295 80.27320488 -7 80 C-6 81 -6 81 -5.88647461 83.40844727 C-5.89432983 84.97163696 -5.89432983 84.97163696 -5.90234375 86.56640625 C-5.90717773 88.2534668 -5.90717773 88.2534668 -5.91210938 89.97460938 C-5.92467773 91.75061523 -5.92467773 91.75061523 -5.9375 93.5625 C-5.94201172 94.75037109 -5.94652344 95.93824219 -5.95117188 97.16210938 C-5.96300325 100.10812226 -5.97948713 103.05403681 -6 106 C-16.02853398 112.21769107 -28.62659223 112.53811147 -40.125 110.1875 C-43.66659987 109.23632746 -46.7934834 107.78968368 -50 106 C-50.9590625 105.58041016 -50.9590625 105.58041016 -51.9375 105.15234375 C-54.39608135 103.77870455 -55.85653393 102.19531731 -57.6875 100.0625 C-58.28949219 99.37285156 -58.89148438 98.68320313 -59.51171875 97.97265625 C-61 96 -61 96 -62 93 C-62.99 92.67 -63.98 92.34 -65 92 C-73.62778503 76.41290745 -75.93732264 56.4111534 -71.64453125 39.0546875 C-70.57166892 35.63453244 -69.35275832 32.32040678 -68 29 C-67.34 29 -66.68 29 -66 29 C-65.7525 28.113125 -65.505 27.22625 -65.25 26.3125 C-63.95035375 22.86843744 -62.51270773 20.66975197 -60 18 C-59.34 18 -58.68 18 -58 18 C-57.67 17.01 -57.34 16.02 -57 15 C-56.34 15 -55.68 15 -55 15 C-55 14.34 -55 13.68 -55 13 C-37.58232838 0.20673404 -20.87323913 -0.33962966 0 0 Z " fill="#000063" transform="translate(194,32)"/>
<path d="M0 0 C0 0.66 0 1.32 0 2 C0.7321875 2.2371875 1.464375 2.474375 2.21875 2.71875 C10.56265515 6.56257147 15.58913155 15.8495312 19 24 C19.34933594 24.78761719 19.69867188 25.57523438 20.05859375 26.38671875 C23.99872252 37.32425464 24.65134883 51.0459535 21 62 C-14.145 62.495 -14.145 62.495 -50 63 C-46.11831387 70.76337225 -42.06157566 75.01340195 -34 78 C-30.75032461 78.56349186 -27.60513629 78.61965831 -24.3125 78.5625 C-23.00236938 78.55041504 -23.00236938 78.55041504 -21.66577148 78.53808594 C-12.99742083 78.27296457 -5.20361085 76.39593017 1.68359375 70.83203125 C4 69 4 69 6.625 68.9375 C9.75656833 70.33846478 10.57835023 71.93222944 12 75 C12 75.66 12 76.32 12 77 C12.66 77 13.32 77 14 77 C15.2890625 78.6796875 15.2890625 78.6796875 16.625 80.875 C17.07101562 81.59429687 17.51703125 82.31359375 17.9765625 83.0546875 C19 85 19 85 19 87 C19.66 87 20.32 87 21 87 C21 88.32 21 89.64 21 91 C19.05859375 92.78125 19.05859375 92.78125 16.4375 94.5 C15.5196875 95.10328125 14.601875 95.7065625 13.65625 96.328125 C12.7796875 96.87984375 11.903125 97.4315625 11 98 C10.3709375 98.40734375 9.741875 98.8146875 9.09375 99.234375 C-6.03648668 108.51235032 -27.2551609 109.07101023 -44.3046875 105.6796875 C-58.35081596 102.13762032 -69.25168736 93.70458771 -77.1875 81.6875 C-85.64599958 65.71436775 -87.29141419 48.23270553 -82.35546875 30.93359375 C-80.41228904 24.86059358 -77.30844338 19.42733409 -74 14 C-73.34 14 -72.68 14 -72 14 C-71.72800781 13.40832031 -71.45601563 12.81664063 -71.17578125 12.20703125 C-66.81307616 4.01790043 -58.26503392 -0.52707044 -50 -4 C-32.50617804 -9.15166661 -16.44521611 -7.42481296 0 0 Z M-46.9375 27.875 C-49.3832985 31.28773505 -49.3832985 31.28773505 -51 37 C-37.47 37 -23.94 37 -10 37 C-12.10609766 28.99006865 -12.10609766 28.99006865 -17.91015625 23.8046875 C-27.63025343 18.90178134 -39.30633616 19.39592907 -46.9375 27.875 Z " fill="#000062" transform="translate(395,37)"/>
<path d="M0 0 C0.71353638 0.00202423 1.42707275 0.00404846 2.16223145 0.00613403 C2.89091431 0.00517731 3.61959717 0.00422058 4.37036133 0.00323486 C5.91377855 0.00255318 7.45719861 0.00440666 9.00061035 0.00857544 C11.37095544 0.01392391 13.74111104 0.00863011 16.1114502 0.00222778 C17.60754437 0.00288857 19.10363842 0.00416973 20.59973145 0.00613403 C21.31326782 0.0041098 22.0268042 0.00208557 22.76196289 0 C27.76602953 0.02399462 27.76602953 0.02399462 28.88098145 1.13894653 C28.9687375 3.2845348 28.98793363 5.43299075 28.9786377 7.58035278 C28.97541504 8.88552856 28.97219238 10.19070435 28.96887207 11.53543091 C28.96051546 12.92410343 28.9520505 14.31277531 28.94348145 15.70144653 C28.93846811 17.09402309 28.93390491 18.48660135 28.92980957 19.87918091 C28.91797578 23.29914524 28.90149025 26.71902497 28.88098145 30.13894653 C30.23630981 30.13109131 30.23630981 30.13109131 31.61901855 30.12307739 C34.96049634 30.10606968 38.30192836 30.0935132 41.64343262 30.08401489 C43.09168217 30.07897552 44.53992661 30.072144 45.98815918 30.06350708 C48.06572733 30.05142406 50.14322842 30.04571442 52.2208252 30.04129028 C53.47242432 30.03605347 54.72402344 30.03081665 56.0135498 30.02542114 C58.88098145 30.13894653 58.88098145 30.13894653 59.88098145 31.13894653 C59.9806993 33.05352935 60.01178733 34.9717697 60.01379395 36.88894653 C60.01508301 38.05425903 60.01637207 39.21957153 60.0177002 40.42019653 C60.01383301 41.64738403 60.00996582 42.87457153 60.00598145 44.13894653 C60.00984863 45.36613403 60.01371582 46.59332153 60.0177002 47.85769653 C60.01641113 49.02300903 60.01512207 50.18832153 60.01379395 51.38894653 C60.01266602 52.46660278 60.01153809 53.54425903 60.01037598 54.65457153 C59.88098145 57.13894653 59.88098145 57.13894653 58.88098145 58.13894653 C56.6624288 58.22678195 54.44109648 58.24589262 52.2208252 58.23660278 C51.2241256 58.23448036 51.2241256 58.23448036 50.20729065 58.23231506 C48.07764246 58.22670171 45.94809805 58.21414707 43.81848145 58.20144653 C42.37772775 58.19643325 40.93697242 58.19187004 39.49621582 58.18777466 C35.95777043 58.17672798 32.41938606 58.15945445 28.88098145 58.13894653 C28.97485306 64.13490042 29.08102152 70.13046651 29.19836426 76.12600708 C29.2365398 78.16370758 29.27141221 80.20147284 29.30285645 82.23928833 C29.34875577 85.17612787 29.40670861 88.11252595 29.46691895 91.04910278 C29.47847015 91.9535463 29.49002136 92.85798981 29.50192261 93.7898407 C29.65511639 102.50259887 29.65511639 102.50259887 33.50598145 110.07644653 C37.00933617 111.64373681 40.15837489 111.76701372 43.88098145 111.13894653 C46.27944658 110.1937386 48.52943882 109.13068783 50.80285645 107.91629028 C53.34752063 106.96443282 54.39380019 107.09251052 56.88098145 108.13894653 C60.19957713 110.61934022 61.80219976 114.39401241 63.63098145 118.01394653 C63.95969238 118.62625122 64.28840332 119.23855591 64.6270752 119.86941528 C66.04879114 122.67085557 66.89712722 124.73184225 66.77160645 127.89675903 C64.61158274 133.33471344 59.84638475 134.7977826 54.75598145 136.99832153 C43.35540014 141.52137825 27.598058 142.28696268 15.88098145 138.13894653 C7.01950028 133.83390072 0.19442909 126.78293873 -3.06433105 117.42410278 C-5.45608608 108.9600765 -6.26773705 100.84918818 -6.24841309 92.08865356 C-6.25016541 91.10412704 -6.25191772 90.11960052 -6.25372314 89.10523987 C-6.25810511 85.86906138 -6.25521793 82.63293802 -6.25183105 79.39675903 C-6.25250482 77.14471425 -6.25347545 74.89266954 -6.25473022 72.640625 C-6.25620196 67.9317251 -6.25406825 63.22284422 -6.24938965 58.51394653 C-6.24367298 52.46417809 -6.24698689 46.41445382 -6.25296211 40.36468697 C-6.2565651 35.72033349 -6.2554307 31.0759906 -6.25283432 26.43163681 C-6.25216534 24.19959381 -6.25299247 21.96754986 -6.25531387 19.73550797 C-6.25783821 16.62793656 -6.25400382 13.52043824 -6.24841309 10.41287231 C-6.25043732 9.48304031 -6.25246155 8.55320831 -6.25454712 7.59519958 C-6.22918366 0.02986909 -6.22918366 0.02986909 0 0 Z " fill="#000062" transform="translate(247.1190185546875,3.861053466796875)"/>
<path d="M0 0 C0.81186768 0.15678223 1.62373535 0.31356445 2.46020508 0.47509766 C6.63291493 1.36665484 10.40443559 2.55534218 14.29101562 4.32910156 C15.08431274 4.68893127 15.87760986 5.04876099 16.69494629 5.41949463 C17.29061401 5.6935614 17.88628174 5.96762817 18.5 6.25 C18.54650956 19.43772697 18.58196337 32.62543416 18.60362434 45.8132267 C18.61402482 51.93801411 18.62811526 58.06274507 18.65087891 64.1875 C18.67274116 70.10732955 18.68459667 76.02710506 18.68975449 81.94697189 C18.69342635 84.19618962 18.700596 86.44540467 18.71146011 88.69459915 C18.8558936 119.85942805 18.8558936 119.85942805 12.5 133.25 C11.84 133.25 11.18 133.25 10.5 133.25 C10.26667969 133.97960937 10.03335938 134.70921875 9.79296875 135.4609375 C8.26844399 138.7494894 6.51156534 140.46940118 3.8125 142.875 C2.98363281 143.63039062 2.15476562 144.38578125 1.30078125 145.1640625 C-10.57704243 154.01030775 -28.31916836 154.55679331 -42.42578125 152.74609375 C-57.79384837 150.04316737 -57.79384837 150.04316737 -63.5 145.25 C-64.78940293 141.54664639 -64.65730137 140.5834789 -62.9375 136.9375 C-60.5 134.25 -60.5 134.25 -57.75 133.625 C-54.21496293 134.30481482 -51.69889963 135.55575245 -48.546875 137.2265625 C-38.56304008 142.21847996 -25.95185984 141.30706573 -15.5 138.25 C-14.80648437 138.05921875 -14.11296875 137.8684375 -13.3984375 137.671875 C-11.76072322 137.21514193 -10.12945667 136.73537007 -8.5 136.25 C-8.5 135.59 -8.5 134.93 -8.5 134.25 C-7.51 134.25 -6.52 134.25 -5.5 134.25 C-5.17 133.26 -4.84 132.27 -4.5 131.25 C-3.84 131.25 -3.18 131.25 -2.5 131.25 C-2.17 130.26 -1.84 129.27 -1.5 128.25 C-0.84 128.25 -0.18 128.25 0.5 128.25 C0.62375 127.528125 0.7475 126.80625 0.875 126.0625 C1.5 123.25 1.5 123.25 2.5 120.8125 C4.65178459 115.29855199 4.76605498 109.40794613 5.05639648 103.55737305 C5.09857772 102.72535968 5.14075895 101.89334631 5.18421841 101.03612041 C5.60184616 92.13358032 5.62685507 83.24239048 5.59765625 74.33203125 C5.59578361 72.61040794 5.59436373 70.88878408 5.59336853 69.16716003 C5.58960981 64.70726972 5.57983916 60.24741369 5.56866455 55.78753662 C5.5583047 51.20797184 5.55384019 46.62840133 5.54882812 42.04882812 C5.53820856 33.11587062 5.52121564 24.1829382 5.5 15.25 C-2.87741721 12.7851685 -10.25945887 11.73033624 -19 11.75 C-20.71896484 11.70746094 -20.71896484 11.70746094 -22.47265625 11.6640625 C-34.40414718 11.63691463 -43.86627144 16.04795786 -52.5 24.25 C-53.99574942 26.18767539 -55.22341353 28.15639819 -56.5 30.25 C-57.16 30.25 -57.82 30.25 -58.5 30.25 C-64.24347582 45.75738471 -66.16257119 62.72074766 -59.140625 78.2578125 C-56.02046103 83.64572452 -52.61877397 89.21040868 -46.5 91.25 C-46.5 91.91 -46.5 92.57 -46.5 93.25 C-34.98992911 95.96637673 -25.88515065 97.16702976 -14.5078125 92.96875 C-12.5 92.25 -12.5 92.25 -10.3046875 91.84375 C-9.70914063 91.6478125 -9.11359375 91.451875 -8.5 91.25 C-8.005 89.765 -8.005 89.765 -7.5 88.25 C-5.625 86.5 -5.625 86.5 -3.5 85.25 C-2.015 85.745 -2.015 85.745 -0.5 86.25 C0.71163851 96.64989723 0.71163851 96.64989723 -2.03515625 100.27734375 C-4.11788368 101.85443793 -6.1645132 103.0822566 -8.5 104.25 C-9.675625 104.848125 -10.85125 105.44625 -12.0625 106.0625 C-24.32424921 110.298377 -38.98589045 109.23740686 -51.0625 105 C-58.22991945 101.35113192 -63.59707222 96.58475625 -68.5 90.25 C-69.00789063 89.62351562 -69.51578125 88.99703125 -70.0390625 88.3515625 C-78.66371123 75.94498223 -79.06450421 57.05307284 -76.96484375 42.5546875 C-74.75153475 32.1291555 -70.33632859 23.46706491 -63.5 15.25 C-62.84 15.25 -62.18 15.25 -61.5 15.25 C-61.17 14.26 -60.84 13.27 -60.5 12.25 C-53.60417404 5.91004673 -45.32192699 2.92584515 -36.5 0.25 C-35.74203125 0.0025 -34.9840625 -0.245 -34.203125 -0.5 C-23.18380533 -3.57515898 -11.04002981 -2.1578287 0 0 Z " fill="#010061" transform="translate(504.5,34.75)"/>
<path d="M0 0 C2.68410038 2.42847177 4.93510819 4.91842173 7.1875 7.75 C8.80309077 10.07487388 8.80309077 10.07487388 11 11 C20.43850571 26.77466136 22.5386581 47.31594084 18.6875 65.125 C17.49974771 69.63280275 16.04467369 73.81328721 14 78 C13.34 78 12.68 78 12 78 C11.62875 79.34578125 11.62875 79.34578125 11.25 80.71875 C7.67206132 90.11083904 -2.40669321 95.96517467 -11.1640625 99.99609375 C-22.74797145 104.66991029 -39.10128087 104.76792772 -51 101 C-54.5625 99.375 -54.5625 99.375 -57 98 C-57 94.37 -57 90.74 -57 87 C-53.31636146 85.77212049 -52.54765373 86.39086699 -49.0625 87.875 C-38.19582631 91.96782854 -28.00644254 91.67723855 -17 88 C-5.66928922 82.62535747 -0.61895924 75.24820475 4.01953125 63.9296875 C8.17674795 51.50772524 6.52104879 36.85198247 1.74609375 24.84765625 C-2.24625031 16.91735973 -7.63063987 10.9913498 -15.96362305 7.59326172 C-19.90541952 6.44489037 -23.86088554 6.52885952 -27.9375 6.5625 C-28.79279297 6.54251953 -29.64808594 6.52253906 -30.52929688 6.50195312 C-39.67128812 6.50892642 -45.62979325 10.13453627 -52.24609375 16.20703125 C-62.90179049 27.10004863 -63.25837957 41.58258961 -63.12475586 55.92456055 C-63.11443329 56.58402679 -63.10411072 57.24349304 -63.09347534 57.92294312 C-63.03676318 61.72578716 -63.02289788 65.52882843 -63.0078125 69.33203125 C-63.00408127 70.19431839 -63.00035004 71.05660553 -62.99650574 71.94502258 C-62.96318725 84.74289768 -63.1740392 97.5396879 -63.37130737 110.33569336 C-63.41607638 113.24093516 -63.4580806 116.14619562 -63.49758911 119.05151367 C-63.55365443 123.16335383 -63.61804392 127.27501863 -63.68359375 131.38671875 C-63.70030121 132.6454631 -63.71700867 133.90420746 -63.73422241 135.20109558 C-63.75417267 136.34733902 -63.77412292 137.49358246 -63.79467773 138.67456055 C-63.81022202 139.68294479 -63.8257663 140.69132904 -63.84178162 141.73027039 C-64 144 -64 144 -65 145 C-66.66429051 145.09823937 -68.33281931 145.12973631 -70 145.125 C-70.9075 145.12757813 -71.815 145.13015625 -72.75 145.1328125 C-75 145 -75 145 -76 144 C-76.0987544 142.10402694 -76.12632197 140.20432921 -76.12698364 138.30578613 C-76.12980347 137.06897598 -76.13262329 135.83216583 -76.13552856 134.55787659 C-76.13358397 133.17465196 -76.13153578 131.79142747 -76.12939453 130.40820312 C-76.13074853 128.96142025 -76.13252845 127.51463771 -76.13470459 126.06785583 C-76.13927909 122.12788238 -76.1374893 118.18793498 -76.1343255 114.24796104 C-76.13180199 110.13377179 -76.13413942 106.01958484 -76.13571167 101.90539551 C-76.13753339 94.99503171 -76.13512699 88.08467858 -76.13037109 81.17431641 C-76.12492847 73.17350233 -76.12669112 65.17271373 -76.1321975 57.17190027 C-76.13672856 50.31501881 -76.13737921 43.45814504 -76.13475883 36.60126257 C-76.13319602 32.50049261 -76.13300241 28.39973465 -76.13629532 24.29896545 C-76.13917393 20.44457361 -76.13719853 16.59021476 -76.13140106 12.73582649 C-76.13007341 11.31719582 -76.13046767 9.89856238 -76.13266373 8.47993279 C-76.13537499 6.55136079 -76.13138062 4.62278276 -76.12698364 2.69421387 C-76.12660662 1.61240593 -76.12622959 0.53059799 -76.12584114 -0.583992 C-76 -3 -76 -3 -75 -4 C-73.48071962 -4.07179964 -71.95832518 -4.08392007 -70.4375 -4.0625 C-69.61121094 -4.05347656 -68.78492188 -4.04445312 -67.93359375 -4.03515625 C-67.29550781 -4.02355469 -66.65742187 -4.01195312 -66 -4 C-64.20724134 -0.88089144 -63.65709282 1.67682428 -63.375 5.25 C-63.30023437 6.14203125 -63.22546875 7.0340625 -63.1484375 7.953125 C-63.09945312 8.62859375 -63.05046875 9.3040625 -63 10 C-62.41734375 9.33613281 -61.8346875 8.67226563 -61.234375 7.98828125 C-55.07193645 1.35106363 -49.57332205 -2.19128648 -41 -5 C-39.88625 -5.433125 -38.7725 -5.86625 -37.625 -6.3125 C-24.50155061 -8.80143006 -11.67759764 -6.40117604 0 0 Z " fill="#010061" transform="translate(897,40)"/>
<path d="M0 0 C1.44599442 0.88628792 2.88244825 1.78811335 4.31665039 2.69335938 C4.31665039 3.35335937 4.31665039 4.01335938 4.31665039 4.69335938 C4.89415039 4.92023437 5.47165039 5.14710937 6.06665039 5.38085938 C8.90639884 7.0373793 10.33165006 9.08804644 12.31665039 11.69335938 C12.95602539 12.27085938 13.59540039 12.84835938 14.25415039 13.44335938 C23.3465507 23.36234154 26.10999323 37.85527905 25.69946289 50.92382812 C24.02322901 67.42960055 16.95576356 80.85322353 4.16821289 91.47851562 C2.31665039 92.69335938 2.31665039 92.69335938 0.31665039 92.69335938 C0.31665039 93.35335937 0.31665039 94.01335937 0.31665039 94.69335938 C-14.79450891 101.63345641 -14.79450891 101.63345641 -21.68334961 101.69335938 C-23.39844727 101.74943359 -23.39844727 101.74943359 -25.14819336 101.80664062 C-42.23912174 102.13104386 -54.70277818 98.3541026 -67.27709961 86.26757812 C-70.64212958 82.66765158 -73.27946487 78.98495729 -75.68334961 74.69335938 C-76.14483398 73.901875 -76.60631836 73.11039062 -77.08178711 72.29492188 C-84.04499064 59.53575703 -84.29133026 44.79206218 -80.73022461 30.90039062 C-78.09674627 22.8329066 -74.05895045 15.26353818 -68.68334961 8.69335938 C-68.02334961 8.69335938 -67.36334961 8.69335938 -66.68334961 8.69335938 C-66.35334961 7.70335938 -66.02334961 6.71335937 -65.68334961 5.69335938 C-64.12475586 4.30664062 -64.12475586 4.30664062 -62.24584961 3.00585938 C-61.62838867 2.56886719 -61.01092773 2.131875 -60.37475586 1.68164062 C-58.68334961 0.69335938 -58.68334961 0.69335938 -56.68334961 0.69335938 C-56.68334961 0.03335938 -56.68334961 -0.62664063 -56.68334961 -1.30664062 C-54.49688657 -2.10116672 -52.3091274 -2.89212643 -50.12084961 -3.68164062 C-48.90268555 -4.1225 -47.68452148 -4.56335937 -46.42944336 -5.01757812 C-29.87051941 -10.71564372 -14.95603378 -8.94668653 0 0 Z M-60.29272461 18.49023438 C-61.54571162 20.1763527 -62.63491767 21.87366716 -63.68334961 23.69335938 C-64.23442383 24.61568359 -64.23442383 24.61568359 -64.79663086 25.55664062 C-70.79184253 36.43522471 -71.01796921 48.82393716 -67.78881836 60.60351562 C-63.74242405 71.9134022 -56.85659449 81.09541525 -46.14038086 86.62695312 C-33.85715087 91.95814833 -24.02113512 91.55875145 -11.68334961 86.69335938 C0.64020463 80.49389555 6.78507395 70.28455619 11.31665039 57.69335938 C14.92463652 46.07254516 11.37383274 34.5028491 5.96508789 24.09179688 C0.39192582 15.03151664 -7.78015472 8.48958408 -17.68334961 4.69335938 C-33.85806083 1.06799307 -49.25783705 6.16972885 -60.29272461 18.49023438 Z " fill="#010060" transform="translate(674.683349609375,41.306640625)"/>
<path d="M0 0 C0.89589844 -0.01417969 1.79179688 -0.02835938 2.71484375 -0.04296875 C5.0625 0.1875 5.0625 0.1875 7.0625 2.1875 C7.3140564 5.09411621 7.3140564 5.09411621 7.31787109 8.86523438 C7.32149155 9.55172058 7.325112 10.23820679 7.32884216 10.94549561 C7.33574457 12.43945485 7.33824002 13.93343936 7.33689499 15.42741394 C7.33593002 17.7996418 7.34887194 20.17141608 7.36587524 22.5435791 C7.41213016 29.28943253 7.43671386 36.03524356 7.44335938 42.78125 C7.44840439 46.9075417 7.47281464 51.033367 7.50868607 55.15950012 C7.51842527 56.72537929 7.52084841 58.29132315 7.51551437 59.85722351 C7.48687418 68.68730142 7.8996921 76.1748968 12.0625 84.1875 C12.68125 85.610625 12.68125 85.610625 13.3125 87.0625 C17.71474407 92.40808209 25.37232178 94.50769157 32.0625 95.1875 C38.6154514 95.10324777 44.77521024 93.96692163 51.0625 92.1875 C51.0625 91.5275 51.0625 90.8675 51.0625 90.1875 C52.0834375 89.5996875 52.0834375 89.5996875 53.125 89 C61.96329214 83.5465857 65.61518025 76.17692331 68.60874939 66.40423584 C69.19097713 63.55984275 69.22716861 60.8540279 69.26782227 57.95019531 C69.28776749 56.68919006 69.30771271 55.42818481 69.32826233 54.12896729 C69.34524401 52.75785443 69.36212291 51.3867403 69.37890625 50.015625 C69.39948835 48.60886033 69.42048515 47.20210167 69.44187927 45.79534912 C69.49697035 42.09976073 69.54643655 38.40411774 69.59472656 34.70843506 C69.64503649 30.93448041 69.70067293 27.16060468 69.75585938 23.38671875 C69.86328228 15.98704608 69.96476219 8.5873076 70.0625 1.1875 C72.56389602 -0.06319801 74.33642691 0.05447533 77.125 0.0625 C78.47271484 0.05863281 78.47271484 0.05863281 79.84765625 0.0546875 C82.0625 0.1875 82.0625 0.1875 83.0625 1.1875 C83.15992068 2.52589473 83.18881559 3.86936825 83.18948364 5.21130371 C83.19371338 6.51118477 83.19371338 6.51118477 83.19802856 7.83732605 C83.19499222 9.27426567 83.19499222 9.27426567 83.19189453 10.74023438 C83.19452301 12.24497063 83.19452301 12.24497063 83.19720459 13.78010559 C83.20162516 17.11383772 83.19868439 20.44751729 83.1953125 23.78125 C83.19598548 26.08671072 83.19695545 28.39217136 83.19821167 30.69763184 C83.19968892 35.53654657 83.19753321 40.37544287 83.19287109 45.21435547 C83.1871738 51.43244645 83.19045266 57.65049428 83.19644356 63.86858368 C83.20004843 68.63133065 83.19891092 73.3940673 83.19631577 78.15681458 C83.19564629 80.45026149 83.19647562 82.74370932 83.19879532 85.03715515 C83.20132064 88.23638406 83.19748295 91.43554203 83.19189453 94.63476562 C83.19391876 95.59272537 83.19594299 96.55068512 83.19802856 97.53767395 C83.19520874 98.40426132 83.19238892 99.27084869 83.18948364 100.16369629 C83.1889181 101.2997015 83.1889181 101.2997015 83.18834114 102.45865631 C83.0625 104.1875 83.0625 104.1875 82.0625 105.1875 C80.54321962 105.25929964 79.02082518 105.27142007 77.5 105.25 C76.26056641 105.23646484 76.26056641 105.23646484 74.99609375 105.22265625 C74.03896484 105.20525391 74.03896484 105.20525391 73.0625 105.1875 C71.49172093 100.16100697 70.61395271 95.42630078 70.0625 90.1875 C69.381875 91.074375 68.70125 91.96125 68 92.875 C65.08277701 96.38400252 61.89909352 98.72628906 58.0625 101.1875 C57.4025 101.1875 56.7425 101.1875 56.0625 101.1875 C56.0625 101.8475 56.0625 102.5075 56.0625 103.1875 C43.77374693 108.14611966 27.82456646 109.65097316 15.0625 105.1875 C7.03173004 101.71276444 2.13403436 96.8806869 -1.9375 89.1875 C-6.06264785 78.62443561 -6.49400697 68.82928121 -6.36328125 57.66796875 C-6.35834431 56.03127951 -6.35505394 54.39458456 -6.35331726 52.75788879 C-6.34574753 49.36175926 -6.32538726 45.96606191 -6.29418945 42.57006836 C-6.25420612 38.20982985 -6.23650712 33.8498679 -6.22688007 29.48946667 C-6.21694709 25.31976324 -6.19707594 21.15012737 -6.17578125 16.98046875 C-6.1723855 16.18495291 -6.16898975 15.38943707 -6.1654911 14.56981468 C-6.15397874 12.33706823 -6.13547834 10.10450127 -6.11450195 7.87182617 C-6.10465775 6.6016716 -6.09481354 5.33151703 -6.08467102 4.02287292 C-5.8425295 -0.64218612 -4.22783555 0.03032881 0 0 Z " fill="#020160" transform="translate(718.9375,35.8125)"/>
<path d="M0 0 C-0.30782496 1.64671412 -0.62139234 3.29235576 -0.9375 4.9375 C-1.11152344 5.85402344 -1.28554688 6.77054688 -1.46484375 7.71484375 C-2 10 -2 10 -3 11 C-4.4380911 10.99397027 -5.87603958 10.94373016 -7.3125 10.875 C-16.69586485 10.83478558 -24.84203637 12.77462638 -32.03515625 18.9921875 C-42.2210283 29.40081222 -44.59502374 41.47009062 -44.57421875 55.6015625 C-44.58669276 56.97351847 -44.60103487 58.34545858 -44.61714172 59.71737671 C-44.65481456 63.29090779 -44.67029848 66.86416285 -44.67993164 70.43786621 C-44.69984131 76.19144084 -44.75642343 81.94480945 -44.80869484 87.69816208 C-44.82404655 89.70406221 -44.83049269 91.71002406 -44.83683777 93.7159729 C-44.84387222 94.92167938 -44.85090668 96.12738586 -44.8581543 97.36962891 C-44.86337349 98.96866562 -44.86337349 98.96866562 -44.86869812 100.6000061 C-45 103 -45 103 -46 104 C-47.83115883 104.09851171 -49.66619933 104.12972629 -51.5 104.125 C-52.5003125 104.12757813 -53.500625 104.13015625 -54.53125 104.1328125 C-57 104 -57 104 -58 103 C-58.09742068 101.66160527 -58.12631559 100.31813175 -58.12698364 98.97619629 C-58.12980347 98.10960892 -58.13262329 97.24302155 -58.13552856 96.35017395 C-58.13350433 95.3922142 -58.1314801 94.43425446 -58.12939453 93.44726562 C-58.13114685 92.44410812 -58.13289917 91.44095062 -58.13470459 90.40739441 C-58.13912516 87.07366228 -58.13618439 83.73998271 -58.1328125 80.40625 C-58.13348548 78.10078928 -58.13445545 75.79532864 -58.13571167 73.48986816 C-58.13718892 68.65095343 -58.13503321 63.81205713 -58.13037109 58.97314453 C-58.1246738 52.75505355 -58.12795266 46.53700572 -58.13394356 40.31891632 C-58.13754843 35.55616935 -58.13641092 30.7934327 -58.13381577 26.03068542 C-58.13314629 23.73723851 -58.13397562 21.44379068 -58.13629532 19.15034485 C-58.13882064 15.95111594 -58.13498295 12.75195797 -58.12939453 9.55273438 C-58.13141876 8.59477463 -58.13344299 7.63681488 -58.13552856 6.64982605 C-58.13270874 5.78323868 -58.12988892 4.91665131 -58.12698364 4.02380371 C-58.12660662 3.2664669 -58.12622959 2.5091301 -58.12584114 1.72884369 C-58 0 -58 0 -57 -1 C-55.50261876 -1.0979057 -54.00057108 -1.12974864 -52.5 -1.125 C-51.6853125 -1.12757812 -50.870625 -1.13015625 -50.03125 -1.1328125 C-48 -1 -48 -1 -47 0 C-46.60006314 2.68862664 -46.24865457 5.36352217 -45.9375 8.0625 C-45.84662109 8.82111328 -45.75574219 9.57972656 -45.66210938 10.36132812 C-45.4375626 12.2404301 -45.21829022 14.12016095 -45 16 C-44.56171875 15.34773438 -44.1234375 14.69546875 -43.671875 14.0234375 C-37.26104741 5.18900436 -29.09481239 0.17038545 -18.29296875 -1.7578125 C-11.7733473 -2.44642669 -6.05704333 -2.74527863 0 0 Z " fill="#020061" transform="translate(599,37)"/>
<path d="M0 0 C1.23556641 0.01740234 1.23556641 0.01740234 2.49609375 0.03515625 C3.32238281 0.04417969 4.14867187 0.05320313 5 0.0625 C5.63808594 0.07410156 6.27617188 0.08570313 6.93359375 0.09765625 C5.99386719 0.55011719 5.99386719 0.55011719 5.03515625 1.01171875 C1.31731126 2.93283568 -0.37397005 5.32222165 -2.06640625 9.09765625 C-2.39640625 9.09765625 -2.72640625 9.09765625 -3.06640625 9.09765625 C-3.1640625 2.9453125 -3.1640625 2.9453125 -3.06640625 1.09765625 C-2.06640625 0.09765625 -2.06640625 0.09765625 0 0 Z " fill="#000040" transform="translate(544.06640625,35.90234375)"/>
<path d="M0 0 C0.99 0.33 1.98 0.66 3 1 C3 1.66 3 2.32 3 3 C1.68 3.33 0.36 3.66 -1 4 C-1 4.66 -1 5.32 -1 6 C-2.98 6.99 -2.98 6.99 -5 8 C-5.33 7.34 -5.66 6.68 -6 6 C-4 4 -2 2 0 0 Z " fill="#09035A" transform="translate(501,120)"/>
<path d="M0 0 C0.33 1.32 0.66 2.64 1 4 C-2 6 -2 6 -5 6 C-4.75 4.125 -4.75 4.125 -4 2 C-1.9375 0.75 -1.9375 0.75 0 0 Z " fill="#00004F" transform="translate(71,154)"/>
<path d="M0 0 C0.99 0.33 1.98 0.66 3 1 C3.33 2.65 3.66 4.3 4 6 C3.01 6 2.02 6 1 6 C0.34 4.35 -0.32 2.7 -1 1 C-0.67 0.67 -0.34 0.34 0 0 Z " fill="#060259" transform="translate(401,106)"/>
<path d="M0 0 C0.33 0.99 0.66 1.98 1 3 C-1 5 -1 5 -3 6 C-3.99 5.34 -4.98 4.68 -6 4 C-6 3.34 -6 2.68 -6 2 C-4.02 1.34 -2.04 0.68 0 0 Z " fill="#010153" transform="translate(376,54)"/>
<path d="M0 0 C0 0.66 0 1.32 0 2 C0.66 2.33 1.32 2.66 2 3 C-0.31 3.66 -2.62 4.32 -5 5 C-4.625 3.0625 -4.625 3.0625 -4 1 C-2 0 -2 0 0 0 Z " fill="#00004E" transform="translate(667,136)"/>
<path d="M0 0 C0 0.99 0 1.98 0 3 C-2.5 4.6875 -2.5 4.6875 -5 6 C-5.33 4.68 -5.66 3.36 -6 2 C-3 1 -3 1 -1 1 C-0.67 0.67 -0.34 0.34 0 0 Z " fill="#333382" transform="translate(838,50)"/>
</svg>
